<svg width="15" height="16" viewBox="0 0 15 16" fill="none" xmlns="http://www.w3.org/2000/svg">
    <path d="M14.0778 11.2184L8.95375 2.31975C8.80533 2.06593 8.59305 1.85539 8.33801 1.70908C8.08297 1.56276 7.79407 1.48578 7.50004 1.48578C7.20601 1.48578 6.91711 1.56276 6.66207 1.70908C6.40703 1.85539 6.19474 2.06593 6.04633 2.31975L0.922303 11.2184C0.778291 11.4647 0.702393 11.7449 0.702393 12.0302C0.702393 12.3155 0.778291 12.5957 0.922303 12.842C1.06907 13.0971 1.28107 13.3085 1.53653 13.4547C1.79199 13.6008 2.08173 13.6763 2.37601 13.6735H12.6241C12.9181 13.6761 13.2076 13.6005 13.4629 13.4544C13.7181 13.3083 13.9299 13.0969 14.0766 12.842C14.2208 12.5958 14.2969 12.3157 14.2971 12.0304C14.2973 11.745 14.2216 11.4648 14.0778 11.2184ZM12.859 12.1383C12.8352 12.1789 12.8008 12.2123 12.7596 12.235C12.7183 12.2577 12.6717 12.2688 12.6246 12.2672H2.37601C2.32896 12.2688 2.28234 12.2577 2.24108 12.235C2.19983 12.2123 2.16547 12.1789 2.14164 12.1383C2.12143 12.1054 2.11072 12.0676 2.11072 12.029C2.11072 11.9904 2.12143 11.9526 2.14164 11.9197L7.26566 3.02111C7.29104 2.98206 7.32577 2.94996 7.3667 2.92774C7.40763 2.90552 7.45346 2.89389 7.50004 2.89389C7.54661 2.89389 7.59245 2.90552 7.63338 2.92774C7.67431 2.94996 7.70904 2.98206 7.73441 3.02111L12.8579 11.9197C12.8782 11.9525 12.8891 11.9903 12.8894 12.0289C12.8896 12.0674 12.8791 12.1053 12.859 12.1383ZM6.79691 8.28283V6.40783C6.79691 6.22135 6.87099 6.04251 7.00285 5.91065C7.13471 5.77879 7.31356 5.70471 7.50004 5.70471C7.68652 5.70471 7.86536 5.77879 7.99722 5.91065C8.12908 6.04251 8.20316 6.22135 8.20316 6.40783V8.28283C8.20316 8.46931 8.12908 8.64816 7.99722 8.78002C7.86536 8.91188 7.68652 8.98596 7.50004 8.98596C7.31356 8.98596 7.13471 8.91188 7.00285 8.78002C6.87099 8.64816 6.79691 8.46931 6.79691 8.28283ZM8.43754 10.6266C8.43754 10.812 8.38255 10.9933 8.27954 11.1474C8.17653 11.3016 8.03011 11.4218 7.8588 11.4927C7.6875 11.5637 7.499 11.5822 7.31714 11.5461C7.13528 11.5099 6.96824 11.4206 6.83713 11.2895C6.70601 11.1584 6.61672 10.9913 6.58055 10.8095C6.54438 10.6276 6.56294 10.4391 6.6339 10.2678C6.70486 10.0965 6.82502 9.95009 6.97919 9.84708C7.13336 9.74407 7.31462 9.68908 7.50004 9.68908C7.74868 9.68908 7.98713 9.78786 8.16295 9.96367C8.33877 10.1395 8.43754 10.3779 8.43754 10.6266Z" fill="#FEB72F"/>
</svg>
