<svg width="362" height="171" viewBox="0 0 362 171" fill="none" xmlns="http://www.w3.org/2000/svg">
<g filter="url(#filter0_d_30_7004)">
<path d="M70.4805 88.8559C70.4805 88.1238 71.074 87.5302 71.8061 87.5302H145.561C146.293 87.5302 146.886 88.1238 146.886 88.8559C146.886 89.588 146.293 90.1815 145.561 90.1815H71.8061C71.074 90.1815 70.4805 89.588 70.4805 88.8559Z" fill="#1D2427"/>
<path d="M70.4805 95.1819C70.4805 92.4205 72.719 90.1819 75.4805 90.1819H141.886C144.648 90.1819 146.886 92.4205 146.886 95.1819V141.582C146.886 144.344 144.648 146.582 141.886 146.582H75.4805C72.7191 146.582 70.4805 144.344 70.4805 141.582V95.1819Z" fill="white"/>
<rect x="75.7988" y="93.7466" width="24.8948" height="10.1236" rx="5" fill="#D9D9D9"/>
<path d="M274.445 86.0971C274.445 85.3282 275.069 84.7049 275.838 84.7049H353.296C354.065 84.7049 354.688 85.3282 354.688 86.0971C354.688 86.866 354.065 87.4893 353.296 87.4893H275.838C275.069 87.4893 274.445 86.866 274.445 86.0971Z" fill="#1D2427"/>
<path d="M274.445 92.4896C274.445 89.7281 276.684 87.4896 279.445 87.4896H349.688C352.45 87.4896 354.688 89.7281 354.688 92.4896V141.723C354.688 144.484 352.45 146.723 349.688 146.723H279.445C276.684 146.723 274.445 144.484 274.445 141.723V92.4896Z" fill="white"/>
<rect x="323.513" y="92.5764" width="26.1451" height="10.632" rx="5" fill="#D9D9D9"/>
<path d="M99.832 33.8203C99.832 33.3667 100.2 32.999 100.653 32.999H146.348C146.802 32.999 147.169 33.3667 147.169 33.8203C147.169 34.2739 146.802 34.6416 146.348 34.6416H100.653C100.2 34.6416 99.832 34.2739 99.832 33.8203Z" fill="#1D2427"/>
<path d="M99.832 39.6418C99.832 36.8804 102.071 34.6418 104.832 34.6418H142.169C144.931 34.6418 147.169 36.8804 147.169 39.6418V64.5848C147.169 67.3463 144.931 69.5848 142.169 69.5848H104.832C102.071 69.5848 99.832 67.3463 99.832 64.5848V39.6418Z" fill="white"/>
<rect x="128.566" y="60.1873" width="15.4236" height="6.27207" rx="3.13603" fill="#D9D9D9"/>
<path d="M54.0596 51.4193C54.0596 51.1065 54.3132 50.8529 54.626 50.8529H86.1382C86.451 50.8529 86.7045 51.1065 86.7045 51.4193C86.7045 51.7321 86.451 51.9857 86.1382 51.9857H54.626C54.3132 51.9857 54.0596 51.7321 54.0596 51.4193Z" fill="#1D2427"/>
<path d="M54.0596 56.9858C54.0596 54.2244 56.2981 51.9858 59.0596 51.9858H81.7045C84.466 51.9858 86.7045 54.2244 86.7045 56.9858V71.0833C86.7045 73.8447 84.466 76.0833 81.7045 76.0833H59.0596C56.2981 76.0833 54.0596 73.8448 54.0596 71.0833V56.9858Z" fill="white"/>
<path d="M54.2773 54.1485C54.2773 52.954 55.2456 51.9858 56.44 51.9858H84.2544C85.4489 51.9858 86.4171 52.954 86.4171 54.1485C86.4171 55.3429 85.4489 56.3111 84.2544 56.3111H56.44C55.2456 56.3111 54.2773 55.3429 54.2773 54.1485Z" fill="#D9D9D9"/>
<path d="M335.476 51.0537C335.476 50.7571 335.716 50.5167 336.013 50.5167H365.888C366.185 50.5167 366.425 50.7571 366.425 51.0537C366.425 51.3502 366.185 51.5907 365.888 51.5907H336.013C335.716 51.5907 335.476 51.3502 335.476 51.0537Z" fill="#1D2427"/>
<path d="M335.476 56.5908C335.476 53.8294 337.714 51.5908 340.476 51.5908H361.425C364.187 51.5908 366.425 53.8294 366.425 56.5908V69.437C366.425 72.1984 364.187 74.437 361.425 74.437H340.476C337.714 74.437 335.476 72.1984 335.476 69.437V56.5908Z" fill="white"/>
<rect x="337.202" y="68.4965" width="10.0841" height="4.10075" rx="2.05037" fill="#D9D9D9"/>
<path d="M275.293 33.8203C275.293 33.3667 275.661 32.999 276.114 32.999H321.809C322.263 32.999 322.63 33.3667 322.63 33.8203C322.63 34.2739 322.263 34.6416 321.809 34.6416H276.114C275.661 34.6416 275.293 34.2739 275.293 33.8203Z" fill="#1D2427"/>
<path d="M275.293 39.6418C275.293 36.8804 277.532 34.6418 280.293 34.6418H317.63C320.392 34.6418 322.63 36.8804 322.63 39.6418V64.5848C322.63 67.3463 320.392 69.5848 317.63 69.5848H280.293C277.532 69.5848 275.293 67.3463 275.293 64.5848V39.6418Z" fill="white"/>
<rect x="277.933" y="59.4485" width="41.8974" height="6.27207" rx="3.13603" fill="#D9D9D9"/>
<path d="M159.167 46.3499C159.167 45.3743 159.958 44.5833 160.934 44.5833H259.22C260.195 44.5833 260.986 45.3743 260.986 46.3499C260.986 47.3256 260.195 48.1165 259.22 48.1165H160.934C159.958 48.1165 159.167 47.3256 159.167 46.3499Z" fill="#1D2427"/>
<path d="M159.167 53.1167C159.167 50.3552 161.406 48.1167 164.167 48.1167H255.986C258.748 48.1167 260.986 50.3552 260.986 53.1167V118.276C260.986 121.038 258.748 123.276 255.986 123.276H164.167C161.406 123.276 159.167 121.038 159.167 118.276V53.1167Z" fill="white"/>
<path d="M207.47 86.6672C208.201 86.6672 208.822 86.4171 209.335 85.917C209.847 85.4168 210.102 84.8104 210.101 84.0978C210.101 83.3841 209.845 82.7772 209.333 82.277C208.821 81.7768 208.2 81.5273 207.47 81.5285C206.739 81.5285 206.118 81.7786 205.606 82.2787C205.094 82.7789 204.838 83.3853 204.839 84.0978C204.839 84.8116 205.095 85.4185 205.608 85.9187C206.12 86.4188 206.741 86.6684 207.47 86.6672ZM203.963 95.2318C204.693 95.2318 205.315 94.9817 205.827 94.4816C206.339 93.9814 206.594 93.375 206.593 92.6624C206.593 91.9487 206.337 91.3418 205.825 90.8416C205.313 90.3414 204.692 90.0919 203.963 90.0931C203.232 90.0931 202.61 90.3431 202.098 90.8433C201.586 91.3435 201.331 91.9499 201.332 92.6624C201.332 93.3761 201.588 93.9831 202.1 94.4833C202.612 94.9834 203.233 95.233 203.963 95.2318ZM215.363 96.9447C215.859 96.9447 216.276 96.7803 216.613 96.4514C216.95 96.1225 217.118 95.716 217.116 95.2318C217.116 94.7465 216.948 94.3394 216.611 94.0105C216.275 93.6816 215.858 93.5177 215.363 93.5189C214.866 93.5189 214.449 93.6833 214.112 94.0122C213.775 94.3411 213.607 94.7476 213.609 95.2318C213.609 95.7171 213.777 96.1242 214.114 96.4531C214.451 96.782 214.867 96.9459 215.363 96.9447ZM210.101 107.222C207.675 107.222 205.395 106.772 203.261 105.872C201.127 104.973 199.271 103.752 197.693 102.212C196.114 100.67 194.865 98.8575 193.945 96.7734C193.024 94.6894 192.564 92.4626 192.562 90.0931C192.562 87.695 193.089 85.354 194.141 83.0701C195.193 80.7862 196.662 78.8164 198.548 77.1605C200.432 75.5047 202.667 74.2914 205.253 73.5206C206.78 73.0655 208.391 72.8542 210.087 72.8867C212.119 72.9257 213.265 75.0313 214.002 76.9259C214.44 78.0541 215.098 79.0031 215.975 79.7727C216.852 80.5435 217.889 81.0717 219.088 81.3572C220.508 81.6954 222.012 83.4837 222.521 84.852C222.697 85.326 222.97 85.7741 223.341 86.1962C223.461 86.3336 223.584 86.4645 223.708 86.5889C225.467 88.3552 227.839 90.2513 227.457 92.715C227.304 93.7044 227.057 94.6718 226.719 95.6172C225.9 97.9011 224.694 99.8995 223.1 101.612C221.508 103.325 219.593 104.689 217.357 105.703C215.12 106.717 212.701 107.223 210.101 107.222Z" fill="#D9D9D9"/>
<rect x="165.018" y="52.1805" width="90.1179" height="13.4907" rx="5" fill="#D9D9D9"/>
</g>
<defs>
<filter id="filter0_d_30_7004" x="0.0595703" y="-17.001" width="420.366" height="221.724" filterUnits="userSpaceOnUse" color-interpolation-filters="sRGB">
<feFlood flood-opacity="0" result="BackgroundImageFix"/>
<feColorMatrix in="SourceAlpha" type="matrix" values="0 0 0 0 0 0 0 0 0 0 0 0 0 0 0 0 0 0 127 0" result="hardAlpha"/>
<feOffset dy="4"/>
<feGaussianBlur stdDeviation="27"/>
<feComposite in2="hardAlpha" operator="out"/>
<feColorMatrix type="matrix" values="0 0 0 0 0.424585 0 0 0 0 0.424585 0 0 0 0 0.424585 0 0 0 0.15 0"/>
<feBlend mode="normal" in2="BackgroundImageFix" result="effect1_dropShadow_30_7004"/>
<feBlend mode="normal" in="SourceGraphic" in2="effect1_dropShadow_30_7004" result="shape"/>
</filter>
</defs>
</svg>
