<?xml version="1.0" encoding="UTF-8"?>
<svg version="1.1" xmlns="http://www.w3.org/2000/svg" width="180" height="180">
<path d="M0 0 C1.1227684 -0.00992981 2.2455368 -0.01985962 3.40232849 -0.03009033 C7.11052929 -0.059258 10.81855888 -0.072926 14.52685547 -0.08398438 C17.11270144 -0.09549503 19.69854738 -0.1070104 22.28439331 -0.11853027 C27.0141343 -0.13684876 31.74380729 -0.14945694 36.47357762 -0.15552378 C43.40650369 -0.16446854 50.33863785 -0.1994977 57.27132332 -0.25752497 C63.30055132 -0.3062148 69.32940888 -0.3214243 75.35885239 -0.32487488 C77.91119569 -0.33090537 80.46353657 -0.34688593 83.01575089 -0.37324524 C108.54331131 -0.61803837 108.54331131 -0.61803837 117.76904297 6.32226562 C118.79642578 7.03769531 119.82380859 7.753125 120.88232422 8.49023438 C128.360183 15.35711358 136.10740214 24.10039115 136.95957565 34.68991852 C137.04348751 37.62589679 137.06211201 40.55597268 137.05957031 43.49316406 C137.06628754 44.60939148 137.07300476 45.7256189 137.07992554 46.87567139 C137.09890272 50.56103993 137.10282978 54.24622628 137.10498047 57.93164062 C137.1114091 60.49985834 137.11813751 63.06807532 137.12515259 65.6362915 C137.13712505 71.01959238 137.14091929 76.40282127 137.13964844 81.78613281 C137.13844854 87.98803521 137.1595252 94.18958876 137.19113576 100.39140296 C137.2205553 106.37897444 137.22762137 112.36635821 137.22642899 118.35401154 C137.22878316 120.89123203 137.23759623 123.42845533 137.25309372 125.96562958 C137.27278067 129.52197346 137.26690379 133.07742961 137.25488281 136.63378906 C137.26612183 137.6730957 137.27736084 138.71240234 137.28894043 139.78320312 C137.18433594 152.01703137 132.21935088 160.52366895 123.96044922 169.22851562 C121.98995296 171.09659524 119.94260441 172.69483116 117.76904297 174.32226562 C116.72345215 175.11821136 116.72345215 175.11821136 115.65673828 175.93023682 C104.67382462 182.74435731 91.66259472 181.18750559 79.20654297 181.11914062 C76.6068489 181.12318825 74.00715705 181.12901624 71.4074707 181.13653564 C65.97404104 181.14535362 60.54125588 181.13319568 55.10791016 181.10449219 C48.85681578 181.07184669 42.60689616 181.08242725 36.35583019 181.11545062 C30.30298567 181.14612746 24.25070836 181.14266786 18.19778442 181.12516022 C15.63990104 181.12117769 13.08198736 181.1259988 10.5241394 181.14003754 C-14.99886318 181.24940205 -14.99886318 181.24940205 -24.23095703 174.32226562 C-25.26994141 173.59523437 -26.30892578 172.86820313 -27.37939453 172.11914062 C-32.86303291 167.07804148 -36.9418055 162.02352762 -40.23095703 155.32226562 C-40.99827652 153.85787804 -40.99827652 153.85787804 -41.78109741 152.36390686 C-43.87957541 147.39980627 -43.68153367 142.41690347 -43.68261719 137.10131836 C-43.69429932 135.99137009 -43.70598145 134.88142181 -43.71801758 133.73783875 C-43.751543 130.07709043 -43.76233615 126.41674762 -43.77001953 122.75585938 C-43.78220777 120.19865276 -43.79469403 117.64144755 -43.8074646 115.08424377 C-43.82992845 109.72368457 -43.83956873 104.36327587 -43.84179688 99.00268555 C-43.8448233 92.83974833 -43.88517377 86.67782013 -43.94294512 80.51517528 C-43.99682754 74.55379964 -44.01137981 68.59272245 -44.0119133 62.63109016 C-44.01727105 60.11109435 -44.0340191 57.59109421 -44.06276321 55.07125664 C-44.24724989 37.42189915 -43.21077908 24.57384076 -30.47314453 11.29101562 C-20.96032053 2.93829211 -12.43132895 0.02637872 0 0 Z " fill="#01A3FF" transform="translate(43.23095703125,-0.322265625)"/>
<path d="M0 0 C1.55213196 -0.00065712 1.55213196 -0.00065712 3.13562012 -0.00132751 C6.54454635 0.00075697 9.95297643 0.02407261 13.36181641 0.04760742 C15.72978446 0.05320457 18.09775599 0.05747411 20.46572876 0.06047058 C26.68989702 0.07190993 32.91385437 0.10136958 39.13793945 0.13458252 C45.492484 0.16530284 51.84706271 0.17898013 58.20166016 0.1940918 C70.66399227 0.2262399 83.12616803 0.2774255 95.58837891 0.34057617 C94.65769893 8.81556725 92.26509893 12.926479 85.96337891 18.77807617 C82.41513944 21.11244424 79.35027792 21.46589248 75.15911865 21.46083069 C73.83826263 21.46289268 73.83826263 21.46289268 72.49072266 21.46499634 C71.53262695 21.46140106 70.57453125 21.45780579 69.58740234 21.45410156 C68.5724469 21.45424759 67.55749146 21.45439362 66.51177979 21.45454407 C63.15708275 21.45384742 59.80244124 21.44606653 56.44775391 21.43823242 C54.12176545 21.43636736 51.79577659 21.43494388 49.4697876 21.4339447 C43.34760453 21.43012644 37.22544518 21.42030201 31.10327148 21.40924072 C24.85612306 21.39901178 18.6089708 21.3944439 12.36181641 21.3894043 C0.10399348 21.37867915 -12.15381183 21.36161098 -24.41162109 21.34057617 C-24.28163049 19.7279246 -24.14281909 18.11598227 -24.00024414 16.50439453 C-23.92388229 15.60667831 -23.84752045 14.7089621 -23.7688446 13.78404236 C-23.31964028 10.7114126 -22.38316328 9.11931153 -20.22412109 6.90307617 C-19.65306641 6.28561523 -19.08201172 5.6681543 -18.49365234 5.03198242 C-12.53076402 0.18783488 -7.37263985 -0.08201266 0 0 Z " fill="#E3F4FF" transform="translate(53.41162109375,79.659423828125)"/>
<path d="M0 0 C0.89739899 -0.00274933 1.79479797 -0.00549866 2.71939087 -0.0083313 C4.18458664 0.00245453 4.18458664 0.00245453 5.67938232 0.01345825 C6.71384491 0.0131662 7.7483075 0.01287415 8.81411743 0.01257324 C12.23380924 0.01396672 15.65328325 0.029529 19.07293701 0.04519653 C21.44376506 0.04892659 23.81459466 0.0517736 26.1854248 0.05377197 C32.42600763 0.06140896 38.6664974 0.08105811 44.90704346 0.10317993 C51.2748285 0.12363689 57.64262858 0.13277338 64.01043701 0.14285278 C76.50526957 0.16430385 89.00003305 0.19844068 101.49481201 0.24050903 C100.50245055 9.14355406 100.50245055 9.14355406 97.93231201 12.42800903 C97.47727295 13.04031372 97.02223389 13.65261841 96.55340576 14.28347778 C90.1300794 20.3899038 84.70397485 21.97328926 75.94793701 21.80813599 C74.40999733 21.80923119 74.40999733 21.80923119 72.84098816 21.81034851 C69.47504513 21.80688403 66.11051126 21.76807511 62.74481201 21.72879028 C60.40212764 21.71945815 58.05943348 21.71234393 55.71673584 21.70735168 C49.56804186 21.68831371 43.41994383 21.6392395 37.27148438 21.58383179 C30.99054016 21.53257079 24.70949912 21.50982296 18.42840576 21.48464966 C6.11694684 21.43111847 -6.1940709 21.34584372 -18.50518799 21.24050903 C-17.74245223 14.43186783 -17.01751996 9.2109443 -11.56768799 4.49050903 C-7.58267973 1.56274786 -4.97838784 -0.01179713 0 0 Z " fill="#E2F3FF" transform="translate(47.50518798828125,45.759490966796875)"/>
<path d="M0 0 C1.41100983 0.00022659 1.41100983 0.00022659 2.8505249 0.00045776 C4.36165863 0.01594162 4.36165863 0.01594162 5.90332031 0.03173828 C7.45965179 0.03598312 7.45965179 0.03598312 9.04742432 0.04031372 C12.35888232 0.05150213 15.67006915 0.07660451 18.98144531 0.10205078 C21.22753515 0.1120823 23.47362924 0.12120785 25.71972656 0.12939453 C31.22372522 0.15143708 36.72756589 0.18490146 42.23144531 0.22705078 C42.37616304 8.00321677 42.37616304 8.00321677 39.79394531 11.85205078 C39.34148437 12.56619141 38.88902344 13.28033203 38.42285156 14.01611328 C33.82229648 18.65767153 28.56527782 21.47517369 21.98706055 21.79467773 C20.08786937 21.79389836 18.1885442 21.76638077 16.29003906 21.71533203 C15.28175552 21.70825729 14.27347198 21.70118256 13.2346344 21.69389343 C10.04528494 21.66612444 6.85775525 21.60341856 3.66894531 21.53955078 C1.49384063 21.51444532 -0.68129183 21.49163612 -2.85644531 21.47119141 C-8.16109233 21.41635588 -13.46469346 21.33290813 -18.76855469 21.22705078 C-18.88267212 14.55045285 -17.88414085 11.38840064 -13.76855469 6.22705078 C-9.48810521 2.25980492 -5.88881804 -0.03166031 0 0 Z " fill="#E2F3FF" transform="translate(76.7685546875,113.77294921875)"/>
<path d="M0 0 C0.66 0.33 1.32 0.66 2 1 C0.95199219 2.03060547 0.95199219 2.03060547 -0.1171875 3.08203125 C-1.02726562 3.98308594 -1.93734375 4.88414063 -2.875 5.8125 C-3.77992187 6.70582031 -4.68484375 7.59914063 -5.6171875 8.51953125 C-8.09831514 10.95638333 -8.09831514 10.95638333 -10 14 C-9.67967594 8.71465294 -6.61273386 5.56779936 -3 2 C-2.01 1.34 -1.02 0.68 0 0 Z " fill="#B4E7FF" transform="translate(40,81)"/>
<path d="M0 0 C0.66 0.33 1.32 0.66 2 1 C-0.97 3.97 -3.94 6.94 -7 10 C-7.33 9.34 -7.66 8.68 -8 8 C-7.04578192 6.85073734 -6.08647955 5.70569459 -5.125 4.5625 C-4.59132812 3.92441406 -4.05765625 3.28632812 -3.5078125 2.62890625 C-2 1 -2 1 0 0 Z " fill="#B8E4FF" transform="translate(68,116)"/>
<path d="M0 0 C-1.5830577 4.2742558 -4.50568404 6.26531794 -8 9 C-6.68994234 5.06982701 -4.75047804 0 0 0 Z " fill="#B5EAFF" transform="translate(39,49)"/>
</svg>
