<svg width="180" height="180" viewBox="0 0 180 180" fill="none" xmlns="http://www.w3.org/2000/svg">
    <g clip-path="url(#clip0_4068_72286)">
        <path d="M136.216 0H43.7837C19.6026 0 0 19.6026 0 43.7837V136.216C0 160.397 19.6026 180 43.7837 180H136.216C160.397 180 180 160.397 180 136.216V43.7837C180 19.6026 160.397 0 136.216 0Z" fill="#00009F"/>
        <path d="M81.9403 123.564H28.2856L36.7058 104.093C39.1779 98.376 44.8107 94.6748 51.039 94.6748H114.954L110.607 104.729C105.662 116.162 94.3969 123.564 81.9403 123.564Z" fill="white"/>
        <path d="M126.389 85.4635H50.9184L55.2659 75.4096C60.2102 63.9762 71.4757 56.5742 83.9322 56.5742H149.143L140.723 76.0457C138.25 81.7623 132.618 85.4635 126.389 85.4635Z" fill="white"/>
    </g>
    <defs>
        <clipPath id="clip0_4068_72286">
            <rect width="180" height="180" fill="white"/>
        </clipPath>
    </defs>
</svg>
