<svg xmlns="http://www.w3.org/2000/svg" width="80" height="81" fill="none">
<g fill="#23262D" clip-path="url(#a)">
	<path d="M40 .03a40 40 0 1 0 0 80 40 40 0 0 0 0-80Zm18.99 49.81c-13.68 13.68-38.11 9.31-38.11 9.31s-4.41-24.38 9.31-38.1c7.6-7.61 20.2-7.3 28.17.62 7.96 7.92 8.23 20.57.63 28.17Z"/>
	<path d="m44.59 23.47-3.91 8.06-8.06 3.91 8.06 3.92 3.91 8.05 3.91-8.05 8.06-3.92-8.06-3.91-3.91-8.06Z"/>
</g>
<defs>
	<clipPath id="a">
		<path fill="#fff" d="M0 .03h80v80H0z"/>
	</clipPath>
</defs>
</svg>
