<svg xmlns="http://www.w3.org/2000/svg" width="58" height="81" fill="none">
	<g clip-path="url(#a)">
		<path fill="#1A73E8" d="M37.04 1.77a27.76 27.76 0 0 0-29.6 8.62l13.1 11.02 16.5-19.64Z"/>
		<path fill="#EA4335" d="M7.43 10.39A27.62 27.62 0 0 0 .93 28.2c0 5.22 1.04 9.44 2.75 13.23L20.53 21.4 7.43 10.39Z"/>
		<path fill="#4285F4" d="M28.67 17.6a10.6 10.6 0 0 1 8.1 17.46l16.5-19.63A27.78 27.78 0 0 0 37.06 1.77L20.53 21.41a10.58 10.58 0 0 1 8.14-3.8Z"/>
		<path fill="#FBBC04" d="M28.67 38.82a10.6 10.6 0 0 1-8.14-17.42L3.68 41.44c2.88 6.38 7.67 11.51 12.6 17.97l20.48-24.35a10.58 10.58 0 0 1-8.1 3.76Z"/>
		<path fill="#34A853" d="M36.36 66.06C45.61 51.59 56.4 45.02 56.4 28.2a27.6 27.6 0 0 0-3.12-12.78l-37 43.98a98.62 98.62 0 0 1 4.7 6.65c5.63 8.7 4.06 13.9 7.7 13.9 3.61 0 2.06-5.21 7.68-13.9Z"/>
	</g>
	<defs>
		<clipPath id="a">
			<path fill="#fff" d="M0 .03h57.46v80H0z"/>
		</clipPath>
	</defs>
</svg>
